{"title":"Lenka - Everything At Once [Music Video] 1080p [Sbyky]","uid":11579603,"size":77244341,"categoryP":"video","categoryS":"music_videos","magnet":"?xt=urn:btih:6efb3dc8aebaa3782ae83d9b2569008d3d607fb4&amp;dn=Lenka+-+Everything+At+Once+%5BMusic+Video%5D+1080p+%5BSbyky%5D&amp;tr=udp%3A%2F%2Ftracker.openbittorrent.com%3A80&amp;tr=udp%3A%2F%2Fopen.demonii.com%3A1337&amp;tr=udp%3A%2F%2Ftracker.coppersurfer.tk%3A6969&amp;tr=udp%3A%2F%2Fexodus.desync.com%3A6969","seeders":1,"leechers":1,"uploader":"Sbyky","files":1,"time":1417111594,"description":"General\nComplete name                            : Lenka - Everything At Once [Music Video] 1080p [Sbyky].mp4\nFormat                                   : MPEG-4\nFormat profile                           : Base Media\nCodec ID                                 : isom\nFile size                                : 73.7 MiB\nDuration                                 : 2mn 42s\nOverall bit rate mode                    : Variable\nOverall bit rate                         : 3 797 Kbps\nEncoded date                             : UTC 2014-03-07 15:25:34\nTagged date                              : UTC 2014-03-07 15:25:34\n\nVideo\nID                                       : 1\nFormat                                   : AVC\nFormat/Info                              : Advanced Video Codec\nFormat profile                           : &lt;a class=&quot;__cf_email__&quot; href=&quot;/cdn-cgi/l/email-protection&quot; data-cfemail=&quot;1159787679515d253f21&quot;&gt;[email&amp;#160;protected]&lt;/a&gt;&lt;script cf-hash='f9e31' type=&quot;text/javascript&quot;&gt;\n/* &lt;![CDATA[ */!function(){try{var t=&quot;currentScript&quot;in document?document.currentScript:function(){for(var t=document.getElementsByTagName(&quot;script&quot;),e=t.length;e--;)if(t[e].getAttribute(&quot;cf-hash&quot;))return t[e]}();if(t&amp;&amp;t.previousSibling){var e,r,n,i,c=t.previousSibling,a=c.getAttribute(&quot;data-cfemail&quot;);if(a){for(e=&quot;&quot;,r=parseInt(a.substr(0,2),16),n=2;a.length-n;n+=2)i=parseInt(a.substr(n,2),16)^r,e+=String.fromCharCode(i);e=document.createTextNode(e),c.parentNode.replaceChild(e,c)}}}catch(u){}}();/* ]]&gt; */&lt;/script&gt;\nFormat settings, CABAC                   : Yes\nFormat settings, ReFrames                : 3 frames\nCodec ID                                 : avc1\nCodec ID/Info                            : Advanced Video Coding\nDuration                                 : 2mn 42s\nDuration_LastFrame                       : -32ms\nBit rate                                 : 3 669 Kbps\nWidth                                    : 1 920 pixels\nHeight                                   : 1 080 pixels\nDisplay aspect ratio                     : 16:9\nFrame rate mode                          : Constant\nFrame rate                               : 29.970 fps\nColor space                              : YUV\nChroma subsampling                       : 4:2:0\nBit depth                                : 8 bits\nScan type                                : Progressive\nBits/(Pixel*Frame)                       : 0.059\nStream size                              : 71.2 MiB (97%)\nEncoded date                             : UTC 2014-03-07 15:25:34\nTagged date                              : UTC 2014-03-07 15:25:34\n\nAudio\nID                                       : 2\nFormat                                   : AAC\nFormat/Info                              : Advanced Audio Codec\nFormat profile                           : LC\nCodec ID                                 : 40\nDuration                                 : 2mn 42s\nBit rate mode                            : Variable\nBit rate                                 : 126 Kbps\nChannel(s)                               : 2 channels\nChannel positions                        : Front: L R\nSampling rate                            : 44.1 KHz\nCompression mode                         : Lossy\nStream size                              : 2.44 MiB (3%)\nEncoded date                             : UTC 2014-03-07 15:24:18\nTagged date                              : UTC 2014-03-07 15:24:18\n\nShared By Sbyky","torrent":{"xt":"urn:btih:6efb3dc8aebaa3782ae83d9b2569008d3d607fb4","amp;dn":"Lenka+-+Everything+At+Once+%5BMusic+Video%5D+1080p+%5BSbyky%5D","amp;tr":["udp%3A%2F%2Ftracker.openbittorrent.com%3A80","udp%3A%2F%2Fopen.demonii.com%3A1337","udp%3A%2F%2Ftracker.coppersurfer.tk%3A6969","udp%3A%2F%2Fexodus.desync.com%3A6969"],"infoHash":"6efb3dc8aebaa3782ae83d9b2569008d3d607fb4","infoHashBuffer":{"type":"Buffer","data":[110,251,61,200,174,186,163,120,42,232,61,155,37,105,0,141,61,96,127,180]},"announce":[],"urlList":[]}}